{"asset":{"version":"2.0","generator":"Frontier SceneCodec"},"extensionsUsed":["KHR_materials_specular","KHR_materials_emissive_strength"],"scene":0,"scenes":[{"name":"ProjectZeroCelestial","nodes":[0,1,2,3,4,5,6,7]}],"nodes":[{"mesh":0,"name":"Ground"},{"mesh":1,"name":"White Sphere"},{"mesh":2,"name":"Steel Sphere"},{"mesh":3,"name":"Clay Cone"},{"mesh":4,"name":"Steel Torus"},{"mesh":5,"name":"White Slab"},{"mesh":6,"name":"Clay Crate"},{"mesh":7,"name":"Emissive Response Panel"}],"meshes":[{"name":"Ground","primitives":[{"attributes":{"POSITION":0,"NORMAL":1},"indices":2,"material":0,"mode":4}]},{"name":"White Sphere","primitives":[{"attributes":{"POSITION":3,"NORMAL":4},"indices":5,"material":1,"mode":4}]},{"name":"Steel Sphere","primitives":[{"attributes":{"POSITION":6,"NORMAL":7},"indices":8,"material":2,"mode":4}]},{"name":"Clay Cone","primitives":[{"attributes":{"POSITION":9,"NORMAL":10},"indices":11,"material":3,"mode":4}]},{"name":"Steel Torus","primitives":[{"attributes":{"POSITION":12,"NORMAL":13},"indices":14,"material":2,"mode":4}]},{"name":"White Slab","primitives":[{"attributes":{"POSITION":15,"NORMAL":16},"indices":17,"material":1,"mode":4}]},{"name":"Clay Crate","primitives":[{"attributes":{"POSITION":18,"NORMAL":19},"indices":20,"material":3,"mode":4}]},{"name":"Emissive Response Panel","primitives":[{"attributes":{"POSITION":21,"NORMAL":22},"indices":23,"material":4,"mode":4}]}],"materials":[{"name":"material_0","pbrMetallicRoughness":{"baseColorFactor":[0.319999993,0.319999993,0.300000012,1.0],"metallicFactor":0.0,"roughnessFactor":0.600000024},"extensions":{"KHR_materials_specular":{"specularFactor":0.0,"specularColorFactor":[1.0,1.0,1.0]}}},{"name":"material_1","pbrMetallicRoughness":{"baseColorFactor":[0.800000012,0.800000012,0.800000012,1.0],"metallicFactor":0.0,"roughnessFactor":0.400000006},"extensions":{"KHR_materials_specular":{"specularFactor":0.0,"specularColorFactor":[1.0,1.0,1.0]}}},{"name":"material_2","pbrMetallicRoughness":{"baseColorFactor":[0.720000029,0.74000001,0.779999971,1.0],"metallicFactor":0.0,"roughnessFactor":0.150000006},"extensions":{"KHR_materials_specular":{"specularFactor":0.0,"specularColorFactor":[1.0,1.0,1.0]}}},{"name":"material_3","pbrMetallicRoughness":{"baseColorFactor":[0.699999988,0.449999988,0.280000001,1.0],"metallicFactor":0.0,"roughnessFactor":0.5},"extensions":{"KHR_materials_specular":{"specularFactor":0.0,"specularColorFactor":[1.0,1.0,1.0]}}},{"name":"material_4","pbrMetallicRoughness":{"baseColorFactor":[1.0,0.920000017,0.75,1.0],"metallicFactor":0.0,"roughnessFactor":0.150000006},"emissiveFactor":[1.0,0.466666669,0.13333334],"extensions":{"KHR_materials_emissive_strength":{"emissiveStrength":6.0},"KHR_materials_specular":{"specularFactor":0.0,"specularColorFactor":[1.0,1.0,1.0]}}}],"accessors":[{"bufferView":0,"componentType":5126,"count":6,"type":"VEC3","min":[-200.0,0.0,-200.0],"max":[200.0,0.0,200.0]},{"bufferView":1,"componentType":5126,"count":6,"type":"VEC3"},{"bufferView":2,"componentType":5125,"count":6,"type":"SCALAR"},{"bufferView":3,"componentType":5126,"count":4560,"type":"VEC3","min":[-4.4000001,0.0,-7.19999981],"max":[-2.0,2.4000001,-4.80000019]},{"bufferView":4,"componentType":5126,"count":4560,"type":"VEC3"},{"bufferView":5,"componentType":5125,"count":4560,"type":"SCALAR"},{"bufferView":6,"componentType":5126,"count":2880,"type":"VEC3","min":[3.89999986,0.0,-11.6999998],"max":[5.29999971,1.39999998,-10.3000002]},{"bufferView":7,"componentType":5126,"count":2880,"type":"VEC3"},{"bufferView":8,"componentType":5125,"count":2880,"type":"SCALAR"},{"bufferView":9,"componentType":5126,"count":240,"type":"VEC3","min":[0.899999976,0.0,-6.0999999],"max":[2.69999981,2.5999999,-4.29999971]},{"bufferView":10,"componentType":5126,"count":240,"type":"VEC3"},{"bufferView":11,"componentType":5125,"count":240,"type":"SCALAR"},{"bufferView":12,"componentType":5126,"count":5808,"type":"VEC3","min":[-2.80000019,1.30305362,-10.8999996],"max":[1.1920929e-07,1.89694643,-8.10000038]},{"bufferView":13,"componentType":5126,"count":5808,"type":"VEC3"},{"bufferView":14,"componentType":5125,"count":5808,"type":"SCALAR"},{"bufferView":15,"componentType":5126,"count":36,"type":"VEC3","min":[5.76780891,0.0,-5.59894466],"max":[7.23219109,4.0,-2.40105534]},{"bufferView":16,"componentType":5126,"count":36,"type":"VEC3"},{"bufferView":17,"componentType":5125,"count":36,"type":"SCALAR"},{"bufferView":18,"componentType":5126,"count":36,"type":"VEC3","min":[-7.18605947,0.0,-4.38605928],"max":[-4.81394053,1.20000005,-2.01394081]},{"bufferView":19,"componentType":5126,"count":36,"type":"VEC3"},{"bufferView":20,"componentType":5125,"count":36,"type":"SCALAR"},{"bufferView":21,"componentType":5126,"count":6,"type":"VEC3","min":[-2.79999995,2.20000005,-15.0],"max":[2.79999995,3.3499999,-15.0]},{"bufferView":22,"componentType":5126,"count":6,"type":"VEC3"},{"bufferView":23,"componentType":5125,"count":6,"type":"SCALAR"}],"bufferViews":[{"buffer":0,"byteOffset":0,"byteLength":72,"target":34962},{"buffer":0,"byteOffset":72,"byteLength":72,"target":34962},{"buffer":0,"byteOffset":144,"byteLength":24,"target":34963},{"buffer":0,"byteOffset":168,"byteLength":54720,"target":34962},{"buffer":0,"byteOffset":54888,"byteLength":54720,"target":34962},{"buffer":0,"byteOffset":109608,"byteLength":18240,"target":34963},{"buffer":0,"byteOffset":127848,"byteLength":34560,"target":34962},{"buffer":0,"byteOffset":162408,"byteLength":34560,"target":34962},{"buffer":0,"byteOffset":196968,"byteLength":11520,"target":34963},{"buffer":0,"byteOffset":208488,"byteLength":2880,"target":34962},{"buffer":0,"byteOffset":211368,"byteLength":2880,"target":34962},{"buffer":0,"byteOffset":214248,"byteLength":960,"target":34963},{"buffer":0,"byteOffset":215208,"byteLength":69696,"target":34962},{"buffer":0,"byteOffset":284904,"byteLength":69696,"target":34962},{"buffer":0,"byteOffset":354600,"byteLength":23232,"target":34963},{"buffer":0,"byteOffset":377832,"byteLength":432,"target":34962},{"buffer":0,"byteOffset":378264,"byteLength":432,"target":34962},{"buffer":0,"byteOffset":378696,"byteLength":144,"target":34963},{"buffer":0,"byteOffset":378840,"byteLength":432,"target":34962},{"buffer":0,"byteOffset":379272,"byteLength":432,"target":34962},{"buffer":0,"byteOffset":379704,"byteLength":144,"target":34963},{"buffer":0,"byteOffset":379848,"byteLength":72,"target":34962},{"buffer":0,"byteOffset":379920,"byteLength":72,"target":34962},{"buffer":0,"byteOffset":379992,"byteLength":24,"target":34963}],"buffers":[{"byteLength":380016,"uri":"data:application/octet-stream;base64,"}]}
